HIERARCHY
ROOT Hips
{
	OFFSET -0.148888 88.448799 3.733362
	CHANNELS 6 Xposition Yposition Zposition Zrotation Yrotation Xrotation 
	JOINT Spine
	{
		OFFSET 0.000000 8.814246 -2.080107
		CHANNELS 3 Zrotation Yrotation Xrotation
		JOINT Spine1
		{
			OFFSET 0.000000 8.844141 0.000000
			CHANNELS 3 Zrotation Yrotation Xrotation
			JOINT Spine2
			{
				OFFSET -0.000000 11.682268 -0.000000
				CHANNELS 3 Zrotation Yrotation Xrotation
				JOINT Spine3
				{
					OFFSET -0.000000 11.746700 -0.000000
					CHANNELS 3 Zrotation Yrotation Xrotation
					JOINT Neck
					{
						OFFSET 0.000000 17.658264 -0.000000
						CHANNELS 3 Zrotation Yrotation Xrotation
						JOINT Neck1
						{
							OFFSET 0.000000 5.101515 0.000000
							CHANNELS 3 Zrotation Yrotation Xrotation
							JOINT Head
							{
								OFFSET -0.000000 5.101515 -0.000000
								CHANNELS 3 Zrotation Yrotation Xrotation
								JOINT HeadEnd
								{
									OFFSET 0.000000 11.655085 -0.000000
									CHANNELS 3 Zrotation Yrotation Xrotation
									End Site
									{
										OFFSET 0.000000 0.000000 0.000000
									}
								}
							}
						}
					}
					JOINT RightShoulder
					{
						OFFSET -2.625389 11.175210 -0.000000
						CHANNELS 3 Zrotation Yrotation Xrotation
						JOINT RightArm
						{
							OFFSET -0.000000 10.434715 0.000000
							CHANNELS 3 Zrotation Yrotation Xrotation
							JOINT RightForeArm
							{
								OFFSET 0.000000 29.628420 0.000000
								CHANNELS 3 Zrotation Yrotation Xrotation
								JOINT RightHand
								{
									OFFSET 0.000000 22.857611 0.000000
									CHANNELS 3 Zrotation Yrotation Xrotation
									JOINT RightHandThumb1
									{
										OFFSET -2.867323 3.959563 2.944291
										CHANNELS 3 Zrotation Yrotation Xrotation
										JOINT RightHandThumb2
										{
											OFFSET -0.000000 3.350399 0.000000
											CHANNELS 3 Zrotation Yrotation Xrotation
											JOINT RightHandThumb3
											{
												OFFSET -0.000000 3.756509 0.000000
												CHANNELS 3 Zrotation Yrotation Xrotation
												JOINT RightHandThumb4
												{
													OFFSET 0.000000 3.147345 0.000000
													CHANNELS 3 Zrotation Yrotation Xrotation
													End Site
													{
														OFFSET 0.000000 0.000000 0.000000
													}
												}
											}
										}
									}
									JOINT RightHandIndex1
									{
										OFFSET -0.086752 10.030893 2.345280
										CHANNELS 3 Zrotation Yrotation Xrotation
										JOINT RightHandIndex2
										{
											OFFSET 0.000000 4.061090 -0.000000
											CHANNELS 3 Zrotation Yrotation Xrotation
											JOINT RightHandIndex3
											{
												OFFSET -0.000000 3.248873 0.000000
												CHANNELS 3 Zrotation Yrotation Xrotation
												JOINT RightHandIndex4
												{
													OFFSET 0.000000 2.639709 -0.000000
													CHANNELS 3 Zrotation Yrotation Xrotation
													End Site
													{
														OFFSET 0.000000 0.000000 0.000000
													}
												}
											}
										}
									}
									JOINT RightHandMiddle1
									{
										OFFSET 0.104102 9.502952 0.006768
										CHANNELS 3 Zrotation Yrotation Xrotation
										JOINT RightHandMiddle2
										{
											OFFSET 0.000000 4.568727 0.000000
											CHANNELS 3 Zrotation Yrotation Xrotation
											JOINT RightHandMiddle3
											{
												OFFSET 0.000000 3.654981 -0.000000
												CHANNELS 3 Zrotation Yrotation Xrotation
												JOINT RightHandMiddle4
												{
													OFFSET -0.000000 2.741236 0.000000
													CHANNELS 3 Zrotation Yrotation Xrotation
													End Site
													{
														OFFSET 0.000000 0.000000 0.000000
													}
												}
											}
										}
									}
									JOINT RightHandRing1
									{
										OFFSET 0.086752 8.921708 -2.267442
										CHANNELS 3 Zrotation Yrotation Xrotation
										JOINT RightHandRing2
										{
											OFFSET -0.000000 4.061090 0.000000
											CHANNELS 3 Zrotation Yrotation Xrotation
											JOINT RightHandRing3
											{
												OFFSET -0.000000 3.654981 0.000000
												CHANNELS 3 Zrotation Yrotation Xrotation
												JOINT RightHandRing4
												{
													OFFSET -0.000000 2.741236 0.000000
													CHANNELS 3 Zrotation Yrotation Xrotation
													End Site
													{
														OFFSET 0.000000 0.000000 0.000000
													}
												}
											}
										}
									}
									JOINT RightHandPinky1
									{
										OFFSET -0.173504 7.976997 -4.467199
										CHANNELS 3 Zrotation Yrotation Xrotation
										JOINT RightHandPinky2
										{
											OFFSET -0.000000 3.350399 0.000000
											CHANNELS 3 Zrotation Yrotation Xrotation
											JOINT RightHandPinky3
											{
												OFFSET -0.000000 2.842763 0.000000
												CHANNELS 3 Zrotation Yrotation Xrotation
												JOINT RightHandPinky4
												{
													OFFSET 0.000000 2.639709 -0.000000
													CHANNELS 3 Zrotation Yrotation Xrotation
													End Site
													{
														OFFSET 0.000000 0.000000 0.000000
													}
												}
											}
										}
									}
									JOINT RightForeArmEnd
									{
										OFFSET 0.000000 0.000000 0.000000
										CHANNELS 3 Zrotation Yrotation Xrotation
										End Site
										{
											OFFSET 0.000000 0.000000 0.000000
										}
									}
								}
								JOINT RightArmEnd
								{
									OFFSET 0.000000 0.000000 0.000000
									CHANNELS 3 Zrotation Yrotation Xrotation
									End Site
									{
										OFFSET 0.000000 0.000000 0.000000
									}
								}
							}
						}
					}
					JOINT LeftShoulder
					{
						OFFSET 2.625389 11.175210 0.000000
						CHANNELS 3 Zrotation Yrotation Xrotation
						JOINT LeftArm
						{
							OFFSET -0.000000 10.813635 -0.000000
							CHANNELS 3 Zrotation Yrotation Xrotation
							JOINT LeftForeArm
							{
								OFFSET 0.000000 28.724781 0.000000
								CHANNELS 3 Zrotation Yrotation Xrotation
								JOINT LeftHand
								{
									OFFSET 0.644384 25.716167 -0.328871
									CHANNELS 3 Zrotation Yrotation Xrotation
									JOINT LeftHandThumb1
									{
										OFFSET 2.867323 3.959563 2.944291
										CHANNELS 3 Zrotation Yrotation Xrotation
										JOINT LeftHandThumb2
										{
											OFFSET 0.000000 3.350399 -0.000000
											CHANNELS 3 Zrotation Yrotation Xrotation
											JOINT LeftHandThumb3
											{
												OFFSET 0.000000 3.756509 0.000000
												CHANNELS 3 Zrotation Yrotation Xrotation
												JOINT LeftHandThumb4
												{
													OFFSET -0.000000 3.100000 0.000000
													CHANNELS 3 Zrotation Yrotation Xrotation
													End Site
													{
														OFFSET 0.000000 0.000000 0.000000
													}
												}
											}
										}
									}
									JOINT LeftHandIndex1
									{
										OFFSET 0.086752 10.030893 2.345280
										CHANNELS 3 Zrotation Yrotation Xrotation
										JOINT LeftHandIndex2
										{
											OFFSET -0.000000 4.061090 0.000000
											CHANNELS 3 Zrotation Yrotation Xrotation
											JOINT LeftHandIndex3
											{
												OFFSET 0.000000 3.248873 0.000000
												CHANNELS 3 Zrotation Yrotation Xrotation
												JOINT LeftHandIndex4
												{
													OFFSET -0.000000 2.639709 -0.000000
													CHANNELS 3 Zrotation Yrotation Xrotation
													End Site
													{
														OFFSET 0.000000 0.000000 0.000000
													}
												}
											}
										}
									}
									JOINT LeftHandMiddle1
									{
										OFFSET -0.104102 9.502952 0.006768
										CHANNELS 3 Zrotation Yrotation Xrotation
										JOINT LeftHandMiddle2
										{
											OFFSET -0.000000 4.568727 -0.000000
											CHANNELS 3 Zrotation Yrotation Xrotation
											JOINT LeftHandMiddle3
											{
												OFFSET 0.000000 3.654981 0.000000
												CHANNELS 3 Zrotation Yrotation Xrotation
												JOINT LeftHandMiddle4
												{
													OFFSET 0.000000 2.741236 0.000000
													CHANNELS 3 Zrotation Yrotation Xrotation
													End Site
													{
														OFFSET 0.000000 0.000000 0.000000
													}
												}
											}
										}
									}
									JOINT LeftHandRing1
									{
										OFFSET -0.086752 8.921708 -2.267442
										CHANNELS 3 Zrotation Yrotation Xrotation
										JOINT LeftHandRing2
										{
											OFFSET 0.000000 4.061090 0.000000
											CHANNELS 3 Zrotation Yrotation Xrotation
											JOINT LeftHandRing3
											{
												OFFSET 0.000000 3.654981 0.000000
												CHANNELS 3 Zrotation Yrotation Xrotation
												JOINT LeftHandRing4
												{
													OFFSET -0.000000 2.741236 0.000000
													CHANNELS 3 Zrotation Yrotation Xrotation
													End Site
													{
														OFFSET 0.000000 0.000000 0.000000
													}
												}
											}
										}
									}
									JOINT LeftHandPinky1
									{
										OFFSET 0.173504 7.976997 -4.467199
										CHANNELS 3 Zrotation Yrotation Xrotation
										JOINT LeftHandPinky2
										{
											OFFSET -0.000000 3.350399 -0.000000
											CHANNELS 3 Zrotation Yrotation Xrotation
											JOINT LeftHandPinky3
											{
												OFFSET -0.000000 2.842763 0.000000
												CHANNELS 3 Zrotation Yrotation Xrotation
												JOINT LeftHandPinky4
												{
													OFFSET 0.000000 2.639709 0.000000
													CHANNELS 3 Zrotation Yrotation Xrotation
													End Site
													{
														OFFSET 0.000000 0.000000 0.000000
													}
												}
											}
										}
									}
									JOINT LeftForeArmEnd
									{
										OFFSET 0.000000 0.000000 0.000000
										CHANNELS 3 Zrotation Yrotation Xrotation
										End Site
										{
											OFFSET 0.000000 0.000000 0.000000
										}
									}
								}
								JOINT LeftArmEnd
								{
									OFFSET 0.000000 0.000000 0.000000
									CHANNELS 3 Zrotation Yrotation Xrotation
									End Site
									{
										OFFSET 0.000000 0.000000 0.000000
									}
								}
							}
						}
					}
				}
			}
		}
	}
	JOINT RightUpLeg
	{
		OFFSET -11.289943 -0.000000 -0.000000
		CHANNELS 3 Zrotation Yrotation Xrotation
		JOINT RightLeg
		{
			OFFSET 0.000000 -38.200325 0.000000
			CHANNELS 3 Zrotation Yrotation Xrotation
			JOINT RightFoot
			{
				OFFSET 0.000000 -39.900856 -0.000000
				CHANNELS 3 Zrotation Yrotation Xrotation
				JOINT RightToeBase
				{
					OFFSET 0.000000 0.000000 15.261641
					CHANNELS 3 Zrotation Yrotation Xrotation
					JOINT RightToeBaseEnd
					{
						OFFSET -0.000000 -0.000000 7.370709
						CHANNELS 3 Zrotation Yrotation Xrotation
						End Site
						{
							OFFSET 0.000000 0.000000 0.000000
						}
					}
				}
				JOINT RightLegEnd
				{
					OFFSET 0.000000 0.000000 0.000000
					CHANNELS 3 Zrotation Yrotation Xrotation
					End Site
					{
						OFFSET 0.000000 0.000000 0.000000
					}
				}
			}
			JOINT RightUpLegEnd
			{
				OFFSET 0.000000 0.000000 0.000000
				CHANNELS 3 Zrotation Yrotation Xrotation
				End Site
				{
					OFFSET 0.000000 0.000000 0.000000
				}
			}
		}
	}
	JOINT LeftUpLeg
	{
		OFFSET 11.315661 -0.000000 0.000000
		CHANNELS 3 Zrotation Yrotation Xrotation
		JOINT LeftLeg
		{
			OFFSET -0.000000 -38.200325 -0.000000
			CHANNELS 3 Zrotation Yrotation Xrotation
			JOINT LeftFoot
			{
				OFFSET 0.000000 -39.900856 -0.000000
				CHANNELS 3 Zrotation Yrotation Xrotation
				JOINT LeftToeBase
				{
					OFFSET 0.000000 0.000000 15.261641
					CHANNELS 3 Zrotation Yrotation Xrotation
					JOINT LeftToeBaseEnd
					{
						OFFSET 0.000000 -0.000000 7.539996
						CHANNELS 3 Zrotation Yrotation Xrotation
						End Site
						{
							OFFSET 0.000000 0.000000 0.000000
						}
					}
				}
				JOINT LeftLegEnd
				{
					OFFSET 0.000000 0.000000 0.000000
					CHANNELS 3 Zrotation Yrotation Xrotation
					End Site
					{
						OFFSET 0.000000 0.000000 0.000000
					}
				}
			}
			JOINT LeftUpLegEnd
			{
				OFFSET 0.000000 0.000000 0.000000
				CHANNELS 3 Zrotation Yrotation Xrotation
				End Site
				{
					OFFSET 0.000000 0.000000 0.000000
				}
			}
		}
	}
}
MOTION
Frames: 4
Frame Time: 0.016667
-0.148888 88.448799 3.733362 -1.071294 -0.165774 -8.795275 1.977979 -0.454280 7.201230 -1.571631 0.301330 1.174068 -0.240323 -1.599208 1.542572 -0.148160 -0.486667 0.007339 2.983474 2.070139 7.902873 0.724172 3.669763 -1.586659 -0.964287 -0.706352 -15.315372 0.000000 0.000000 0.000000 95.648170 -1.072138 10.953419 54.864632 -56.995480 11.180590 -0.098399 6.046414 28.930777 11.922408 10.375718 -3.733858 10.937046 -1.865515 39.738762 0.000000 0.000000 -26.639997 0.000000 0.000000 -18.499998 0.000000 0.000000 0.000000 14.917025 -0.000000 -4.046403 10.441919 0.000000 0.000000 10.441919 0.000000 0.000000 0.000000 0.000000 0.000000 13.016307 0.000000 -6.907734 9.111417 0.000000 0.000000 9.111417 0.000000 0.000000 0.000000 0.000000 0.000000 12.065241 0.000000 -8.902472 8.445668 0.000000 0.000000 8.445668 0.000000 0.000000 0.000000 0.000000 0.000000 10.481709 -0.000000 -12.391636 7.337195 0.000000 0.000000 7.337195 0.000000 0.000000 0.000000 0.000000 0.000000 0.000000 0.000000 0.000000 0.000000 0.000000 0.000000 -93.027763 0.366341 6.512349 -63.928600 41.960018 -1.341277 -0.560537 -1.312608 43.460899 -8.089611 -4.192083 -9.728065 -12.135554 1.950835 39.216904 0.000000 0.000000 -29.519997 0.000000 0.000000 -20.499998 0.000000 0.000000 0.000000 -21.031582 -0.000000 -5.234027 -14.722108 0.000000 0.000000 -14.722108 0.000000 0.000000 0.000000 0.000000 0.000000 -18.543806 0.000000 -7.204970 -12.980664 0.000000 0.000000 -12.980664 0.000000 0.000000 0.000000 0.000000 0.000000 -16.284643 0.000000 -9.077846 -11.399253 0.000000 0.000000 -11.399253 0.000000 0.000000 0.000000 0.000000 0.000000 -12.854185 -0.000000 -11.003169 -8.997928 0.000000 0.000000 -8.997928 0.000000 0.000000 0.000000 0.000000 0.000000 0.000000 0.000000 0.000000 0.000000 0.000000 0.000000 -6.742904 -12.334049 11.218077 -0.100748 -1.572749 3.630219 4.062670 -8.851838 22.145350 -1.149408 2.248072 -19.515566 0.000000 0.000000 0.000000 0.000000 0.000000 0.000000 0.000000 0.000000 0.000000 7.149309 -3.984354 4.916173 0.269636 1.266636 11.990840 -4.307302 12.293428 17.657980 1.482724 -1.272024 -21.386477 0.000000 0.000000 0.000000 0.000000 0.000000 0.000000 0.000000 0.000000 0.000000 
0.000304 88.527611 3.581090 -1.098362 -0.450855 -9.909147 2.115765 -0.199882 6.542468 -0.655643 0.209605 3.706786 0.026151 -0.492560 1.458382 -1.609220 0.108924 3.071853 4.941450 0.197588 6.139734 0.962022 2.254564 -2.098640 -0.586304 -1.146011 -17.639023 0.000000 0.000000 0.000000 93.189461 -0.646845 11.300462 57.037651 -51.224682 11.030863 -0.453921 7.795433 30.889700 12.743278 8.697803 -1.371259 11.074583 -1.851458 39.744400 0.000001 0.000027 -26.960415 0.000009 0.000040 -18.654634 0.000011 0.000001 -0.000033 15.805255 -0.034391 -4.351758 11.030896 -0.004416 0.008172 11.124744 0.007642 0.000928 -0.000027 0.000027 -0.000033 13.765154 -0.013996 -6.154558 9.776395 -0.006960 0.007462 9.870950 0.006289 0.014857 0.000026 0.000082 0.000015 12.769964 -0.017274 -7.156788 8.955437 0.031724 -0.098636 8.898117 0.018974 -0.065657 0.000002 -0.000076 0.000004 11.927749 0.071594 -9.571504 8.137526 0.108625 -0.343971 7.935434 0.053024 -0.302804 -0.000487 0.000001 0.000015 0.000000 0.000000 0.000000 0.000000 0.000000 0.000000 -92.068329 0.481573 7.261746 -62.167591 38.679375 1.775058 0.318967 -2.774488 43.952621 -8.466349 -3.490241 -9.641818 -12.060071 1.895296 39.293625 0.000001 0.000032 -29.194839 -0.000026 -0.000026 -20.410082 -0.000684 -0.000006 0.001247 -20.355482 0.011461 -6.403633 -13.880313 0.066443 0.363343 -14.153162 0.089356 0.324193 0.000016 0.000761 0.000008 -18.460152 0.010614 -7.629488 -12.842159 0.017044 0.142741 -12.583476 0.023863 0.113394 0.000937 -0.000052 0.000005 -16.375988 0.045510 -9.001512 -11.331656 -0.015645 -0.179249 -11.255731 -0.026567 -0.133113 -0.000756 0.000004 0.000008 -13.105688 0.112346 -10.096392 -9.338785 -0.050157 -0.299753 -9.570376 -0.080466 -0.258065 -0.000095 -0.000010 -0.000035 0.000000 0.000000 0.000000 0.000000 0.000000 0.000000 -7.529691 -12.136274 11.741884 -0.208119 -1.142112 6.008716 3.806442 -10.468812 21.103647 -1.128142 1.554544 -17.929264 0.000000 0.000000 0.000000 0.000000 0.000000 0.000000 0.000000 0.000000 0.000000 8.270452 -1.050233 8.281687 0.216910 0.836353 11.814033 -4.548596 7.816526 18.396595 0.761588 -0.863597 -20.771301 0.000000 0.000000 0.000000 0.000000 0.000000 0.000000 0.000000 0.000000 0.000000 
0.063567 88.498848 3.522231 -0.880823 -0.421918 -9.885636 1.941603 -0.173623 6.631042 -0.783430 0.239561 3.672853 0.116488 -0.577032 1.637578 -1.624809 0.101310 3.064076 4.711421 0.263331 5.755067 0.996621 2.258504 -2.162378 -0.581774 -1.131759 -17.569941 0.000000 0.000000 0.000000 93.012367 -0.593274 11.376391 57.821030 -50.554050 10.578713 -0.475309 8.134961 31.438181 12.492482 8.272447 -1.465943 11.060561 -1.858637 39.745121 -0.000003 0.000041 -26.946079 0.000015 0.000036 -18.642029 0.000017 0.000003 -0.000043 15.993910 -0.031785 -4.326614 11.090115 0.006656 -0.054262 11.185829 0.018910 -0.052111 -0.000010 0.000037 -0.000026 13.982904 -0.013190 -6.095446 9.856185 -0.002366 -0.018622 9.937126 0.010870 -0.004422 0.000024 0.000060 0.000004 12.902761 -0.019350 -7.127961 9.012894 0.022884 -0.068254 8.958341 0.011509 -0.039602 -0.000008 0.000099 -0.000005 11.988767 0.062485 -9.533520 8.186687 0.087103 -0.242620 7.981941 0.032654 -0.217643 -0.000416 0.000006 0.000015 0.000000 0.000000 0.000000 0.000000 0.000000 0.000000 -91.717049 0.453008 7.246504 -62.867142 37.671864 1.446020 0.324758 -2.935640 44.308857 -7.958326 -3.870481 -10.133537 -12.040391 1.902289 39.283661 0.000013 0.000035 -29.171360 -0.000050 -0.000018 -20.395926 -0.000435 0.000003 0.001248 -20.379786 0.014961 -6.275428 -13.827929 0.064511 0.348253 -14.115787 0.087490 0.310874 0.000023 0.000615 0.000010 -18.584284 0.010712 -7.564564 -12.818602 0.016492 0.136995 -12.558363 0.024366 0.110382 0.001162 -0.000047 -0.000025 -16.656029 0.047179 -8.955095 -11.426517 -0.014326 -0.177297 -11.350772 -0.026801 -0.133271 -0.000848 0.000013 0.000009 -13.460627 0.112908 -10.080156 -9.470119 -0.047964 -0.295123 -9.678573 -0.081461 -0.257924 -0.000152 0.000007 -0.000053 0.000000 0.000000 0.000000 0.000000 0.000000 0.000000 -7.956263 -12.270791 11.568182 -0.208360 -1.145298 6.103616 4.024761 -10.148067 20.970179 -1.171218 1.556602 -17.901808 0.000000 0.000000 0.000000 0.000000 0.000000 0.000000 0.000000 0.000000 0.000000 8.046872 -0.781394 8.391201 0.213893 0.811927 11.569592 -4.478436 7.751687 18.384706 0.752229 -0.873977 -20.749481 0.000000 0.000000 0.000000 0.000000 0.000000 0.000000 0.000000 0.000000 0.000000 
0.093835 88.486450 3.480561 -0.741515 -0.445280 -9.849695 1.813273 -0.149536 6.708561 -0.859124 0.256086 3.597229 0.130994 -0.594607 1.823421 -1.635741 0.113990 3.068626 4.402727 0.351960 5.468775 1.014036 2.225627 -2.227211 -0.571255 -1.135910 -17.578676 0.000000 0.000000 0.000000 92.919380 -0.558428 11.364857 58.365929 -49.808163 10.246465 -0.487192 8.530030 32.201962 12.414529 8.144444 -1.270878 11.061378 -1.864090 39.742939 -0.000002 0.000039 -26.977686 0.000013 0.000037 -18.646290 0.000017 0.000003 -0.000041 16.219103 -0.031180 -4.353238 11.219716 0.015044 -0.117196 11.306802 0.027598 -0.107412 -0.000011 0.000036 -0.000025 14.245664 -0.014888 -6.074924 10.011244 0.001367 -0.043733 10.075350 0.014810 -0.024740 0.000023 0.000054 0.000005 13.081087 -0.019772 -7.107420 9.131660 0.016447 -0.042448 9.080030 0.005966 -0.016551 -0.000006 0.000264 -0.000005 12.002397 0.055288 -9.476203 8.278463 0.071581 -0.162080 8.080641 0.018955 -0.149525 -0.000341 0.000006 0.000010 0.000000 0.000000 0.000000 0.000000 0.000000 0.000000 -91.458305 0.438004 7.184326 -63.237480 36.972721 1.180024 0.324237 -3.234765 44.716118 -7.728529 -4.056199 -10.402198 -11.966442 1.900542 39.301838 0.000012 0.000034 -29.048796 -0.000064 -0.000019 -20.305136 -0.000356 0.000002 0.001233 -20.156887 0.014356 -6.049766 -13.740883 0.059617 0.323048 -14.039350 0.082459 0.289560 0.000021 0.000516 0.000012 -18.455687 0.008518 -7.407713 -12.765466 0.014615 0.126671 -12.516445 0.023595 0.103882 0.001284 -0.000046 -0.000039 -16.697935 0.050293 -8.836794 -11.503778 -0.011099 -0.170179 -11.424422 -0.025397 -0.129248 -0.000759 0.000013 0.000008 -13.631286 0.112140 -10.002107 -9.605412 -0.040472 -0.276447 -9.809707 -0.077413 -0.245429 -0.000206 0.000006 -0.000053 0.000000 0.000000 0.000000 0.000000 0.000000 0.000000 -8.239212 -12.318008 11.533948 -0.205906 -1.142326 6.040573 4.148511 -9.925992 20.941973 -1.196417 1.552800 -17.919027 0.000000 0.000000 0.000000 0.000000 0.000000 0.000000 0.000000 0.000000 0.000000 7.899035 -0.561187 8.454688 0.210695 0.800687 11.401236 -4.423235 7.743716 18.382742 0.753145 -0.879591 -20.766829 0.000000 0.000000 0.000000 0.000000 0.000000 0.000000 0.000000 0.000000 0.000000 
